<svg aria-hidden="true" style="position:absolute;width:0;height:0" xmlns="http://www.w3.org/2000/svg" overflow="hidden">

  <symbol id="email" viewBox="0 0 512 512">
    <path d="M256,0C114.68.15.15,114.68,0,256c-2.69,204.22,238.06,329.15,403.2,209.43,9.81-6.53,12.47-19.77,5.95-29.58-6.53-9.81-19.77-12.47-29.58-5.95-.32.21-.64.44-.94.67-137.56,99.69-338.09-4.37-335.96-174.57,11.71-283.01,415-282.94,426.67,0v42.67c0,23.56-19.1,42.67-42.67,42.67s-42.67-19.1-42.67-42.67v-42.67c-5.38-169.15-250.65-169.13-256,0,.68,70.89,58.7,127.81,129.59,127.13,36.3-.35,70.76-16.05,94.84-43.22,23.23,41,75.31,55.41,116.31,32.18,26.48-15,42.97-42.98,43.26-73.41v-42.67C511.85,114.68,397.32.15,256,0ZM256,341.33c-47.13,0-85.33-38.21-85.33-85.33s38.21-85.33,85.33-85.33,85.33,38.21,85.33,85.33-38.21,85.33-85.33,85.33Z"/>
  </symbol>

  <symbol id="user" viewBox="0 0 512 512">
    <path d="M256,256c70.69,0,128-57.31,128-128S326.69,0,256,0s-128,57.31-128,128c.07,70.66,57.34,127.93,128,128ZM256,42.67c47.13,0,85.33,38.21,85.33,85.33s-38.21,85.33-85.33,85.33-85.33-38.21-85.33-85.33,38.21-85.33,85.33-85.33Z"/>
    <path d="M256,298.67c-105.99.12-191.88,86.01-192,192,0,11.78,9.55,21.33,21.33,21.33s21.33-9.55,21.33-21.33c0-82.47,66.86-149.33,149.33-149.33s149.33,66.86,149.33,149.33c0,11.78,9.55,21.33,21.33,21.33s21.33-9.55,21.33-21.33c-.12-105.99-86.01-191.88-192-192h.02Z"/>
  </symbol>

  <symbol id="poll" viewBox="0 0 512 512">
    <path d="M405.33,0H106.67C47.79,0,0,47.79,0,106.67v298.67c0,58.88,47.79,106.67,106.67,106.67h298.67c58.88,0,106.67-47.79,106.67-106.67V106.67c0-58.88-47.79-106.67-106.67-106.67ZM469.33,405.33c0,35.2-28.8,64-64,64H106.67c-35.2,0-64-28.8-64-64V106.67c0-35.2,28.8-64,64-64h298.67c35.2,0,64,28.8,64,64v298.67ZM106.67,213.33c0-11.73,9.6-21.33,21.33-21.33h192c11.73,0,21.33,9.6,21.33,21.33s-9.6,21.33-21.33,21.33h-192c-11.73,0-21.33-9.6-21.33-21.33ZM106.67,128c0-11.73,9.6-21.33,21.33-21.33h128c11.73,0,21.33,9.6,21.33,21.33s-9.6,21.33-21.33,21.33h-128c-11.73,0-21.33-9.6-21.33-21.33ZM405.33,298.67c0,11.73-9.6,21.33-21.33,21.33H128c-11.73,0-21.33-9.6-21.33-21.33s9.6-21.33,21.33-21.33h256c11.73,0,21.33,9.6,21.33,21.33ZM213.33,384c0,11.73-9.6,21.33-21.33,21.33h-64c-11.73,0-21.33-9.6-21.33-21.33s9.6-21.33,21.33-21.33h64c11.73,0,21.33,9.6,21.33,21.33Z"/>
  </symbol>

</svg>