<?xml version="1.0" encoding="UTF-8"?>
<svg id="Objects" xmlns="http://www.w3.org/2000/svg" version="1.1" viewBox="0 0 917.5 917.5">
  <!-- Generator: Adobe Illustrator 29.3.1, SVG Export Plug-In . SVG Version: 2.1.0 Build 151)  -->
  <defs>
    <style>
      .st0 {
        fill: #e0e0e0;
      }

      .st1 {
        fill: #9e9e9e;
      }
    </style>
  </defs>
  <path class="st0" d="M917.5,458.8c0,128.4-52.7,244.4-137.7,327.7-.5.5-1.1,1-1.6,1.6-7,6.8-14.2,13.3-21.6,19.6-14.6,12.5-30,24.1-46,34.6-72.3,47.6-158.9,75.3-251.9,75.3s-179.6-27.7-251.9-75.3c-16.1-10.6-31.5-22.2-46-34.6-7.4-6.3-14.6-12.9-21.6-19.6-.5-.5-1.1-1-1.6-1.6C52.7,703.2,0,587.1,0,458.8,0,205.4,205.4,0,458.8,0s458.8,205.4,458.8,458.8Z"/>
  <path class="st1" d="M778.2,788c-7,6.8-14.2,13.3-21.6,19.6-14.6,12.5-30,24.1-46,34.6-72.3,47.6-158.9,75.3-251.9,75.3s-179.6-27.7-251.9-75.3c-16.1-10.6-31.5-22.2-46-34.6-7.4-6.3-14.6-12.9-21.6-19.6,17.3-53.6,59.6-97,115.3-114.6l135.8-42.9v-22.4c-17-10.1-32.2-21.7-44.8-30.1-23.3-15.7-39-40.4-43.7-68.2l-7.2-43.3c-22.7,0-41-18.3-41-41s10.1-31.3,24.6-37.6c-12.7-29.7-22-61.2-27.6-93.6-3.6-20.5-5.6-42.1.5-61.8,6-19.7,21.9-37.1,40.7-37.4l2.5.2c11.8-18.5,30.3-30.7,49.8-37.7,19.4-7.1,39.9-9.4,60.2-11.8,7.9-.9,15.9-1.8,23.9-2.6,36.9-3.6,77.1-4.4,114.8,6.1,37.7,10.5,74.2,34.1,93.4,71.6,15.3,29.8,18.4,65.7,14.5,99.8-2.5,22.6-8,44.5-14.3,66.2,15.8,5.7,27.1,20.8,27.1,38.6s-18.3,41-41,41l-7.2,43.3c-4.6,27.8-20.3,52.4-43.7,68.2-12.6,8.5-27.8,20-44.8,30.1v22.4l135.8,42.9c55.8,17.6,98.1,61,115.4,114.6Z"/>
</svg>