<?xml version="1.0" encoding="UTF-8"?>
<svg id="Objects" xmlns="http://www.w3.org/2000/svg" version="1.1" viewBox="0 0 917.5 917.5">
  <!-- Generator: Adobe Illustrator 29.3.1, SVG Export Plug-In . SVG Version: 2.1.0 Build 151)  -->
  <defs>
    <style>
      .st0 {
        fill: #e0e0e0;
      }

      .st1 {
        fill: #9e9e9e;
      }
    </style>
  </defs>
  <path class="st0" d="M917.5,458.8c0,128.4-52.7,244.4-137.7,327.7-7.5,7.3-15.2,14.4-23.2,21.2-3.2,2.7-6.4,5.4-9.6,8-11.7,9.5-23.8,18.4-36.4,26.6-72.3,47.6-158.9,75.3-251.9,75.3s-179.6-27.7-251.9-75.3c-12.6-8.3-24.7-17.2-36.4-26.6-3.3-2.6-6.5-5.3-9.6-8-8-6.8-15.7-13.9-23.2-21.2C52.7,703.2,0,587.1,0,458.8,0,205.4,205.4,0,458.8,0s458.8,205.4,458.8,458.8Z"/>
  <path class="st1" d="M747.1,815.6c-11.7,9.5-23.8,18.4-36.4,26.6-72.3,47.6-158.9,75.3-251.9,75.3s-179.6-27.7-251.9-75.3c-12.6-8.3-24.7-17.2-36.4-26.6,7.7-58.9,44.3-110.5,97.6-136.8-29.8-10.9-51.3-29-64.5-42.6-8.8-9.1-9.4-23.2-1.5-33.1,22.1-27.6,63.1-81,63.5-203.9v-70.9c0-104.8,87.8-193.2,193.2-193.2s193.2,88.5,193.2,193.2v69c0,124.2,41.3,178,63.5,205.8,7.9,9.9,7.3,24-1.5,33.1-13.1,13.7-34.8,31.7-64.6,42.6,53.3,26.4,90,77.9,97.7,136.8Z"/>
</svg>