<?xml version="1.0" encoding="UTF-8"?>
<svg id="Objects" xmlns="http://www.w3.org/2000/svg" version="1.1" viewBox="0 0 917.5 917.5">
  <!-- Generator: Adobe Illustrator 29.3.1, SVG Export Plug-In . SVG Version: 2.1.0 Build 151)  -->
  <defs>
    <style>
      .st0 {
        fill: #e0e0e0;
      }

      .st1 {
        fill: #9e9e9e;
      }
    </style>
  </defs>
  <path class="st0" d="M917.5,458.8c0,128.4-52.7,244.4-137.7,327.7-7.5,7.3-15.2,14.4-23.2,21.2-3.2,2.7-6.4,5.4-9.6,8-.3.3-.7.5-1,.8-11.4,9.2-23.2,17.8-35.4,25.8-72.3,47.6-158.9,75.3-251.9,75.3s-179.6-27.7-251.9-75.3c-12.2-8-24-16.7-35.4-25.8-.3-.3-.7-.5-1-.8-3.3-2.6-6.5-5.3-9.6-8-8-6.8-15.7-13.9-23.2-21.2C52.7,703.2,0,587.1,0,458.8,0,205.4,205.4,0,458.8,0s458.8,205.4,458.8,458.8Z"/>
  <path class="st1" d="M746.1,816.4c-11.4,9.2-23.2,17.8-35.4,25.8-72.3,47.6-158.9,75.3-251.9,75.3s-179.6-27.7-251.9-75.3c-12.2-8-24-16.7-35.4-25.8,7-66.6,51.1-124.4,114.8-148.3l103.9-38.9v-38.1c-7.7-4.9-14.8-10.2-21.1-15.9-86.5,12.7-135.7-33.2-135.7-33.2,0,0,33.2-39.6,33.2-146v-68.8c0-104.2,87.4-192.2,192.2-192.2s192.2,88,192.2,192.2v68.8c0,106.3,33.2,146,33.2,146,0,0-49.5,46.2-136,33.5-6.3,5.6-13.2,10.8-20.8,15.6v38.2l103.9,38.9c63.7,23.9,107.8,81.6,114.8,148.3Z"/>
</svg>