<?xml version="1.0" encoding="UTF-8"?>
<svg id="Outline" xmlns="http://www.w3.org/2000/svg" version="1.1" viewBox="0 0 512 512">
  <!-- Generator: Adobe Illustrator 29.5.0, SVG Export Plug-In . SVG Version: 2.1.0 Build 137)  -->
  <defs>
    <style>
      .st0 {
        fill: #2d2d2b;
      }
    </style>
  </defs>
  <path class="st0" d="M405.33,21.33H106.67C47.79,21.4.07,69.12,0,128v256c.07,58.88,47.79,106.6,106.67,106.67h298.67c58.88-.07,106.6-47.79,106.67-106.67V128c-.07-58.88-47.79-106.6-106.67-106.67ZM106.67,64h298.67c26.13.05,49.61,15.99,59.31,40.26l-163.37,163.39c-25.03,24.93-65.51,24.93-90.54,0L47.36,104.26c9.7-24.27,33.17-40.2,59.31-40.26ZM405.33,448H106.67c-35.35,0-64-28.65-64-64v-224l137.9,137.81c41.69,41.59,109.18,41.59,150.87,0l137.9-137.81v224c0,35.35-28.65,64-64,64Z"/>
</svg>