<?xml version="1.0" encoding="UTF-8"?>
<svg id="Layer_1" xmlns="http://www.w3.org/2000/svg" version="1.1" viewBox="0 0 512 512">
  <!-- Generator: Adobe Illustrator 29.5.0, SVG Export Plug-In . SVG Version: 2.1.0 Build 137)  -->
  <defs>
    <style>
      .st0 {
        fill: #2d2d2b;
      }
    </style>
  </defs>
  <path class="st0" d="M405.33,0H106.67C47.79,0,0,47.79,0,106.67v298.67c0,58.88,47.79,106.67,106.67,106.67h298.67c58.88,0,106.67-47.79,106.67-106.67V106.67c0-58.88-47.79-106.67-106.67-106.67ZM469.33,405.33c0,35.2-28.8,64-64,64H106.67c-35.2,0-64-28.8-64-64V106.67c0-35.2,28.8-64,64-64h298.67c35.2,0,64,28.8,64,64v298.67ZM106.67,213.33c0-11.73,9.6-21.33,21.33-21.33h192c11.73,0,21.33,9.6,21.33,21.33s-9.6,21.33-21.33,21.33h-192c-11.73,0-21.33-9.6-21.33-21.33ZM106.67,128c0-11.73,9.6-21.33,21.33-21.33h128c11.73,0,21.33,9.6,21.33,21.33s-9.6,21.33-21.33,21.33h-128c-11.73,0-21.33-9.6-21.33-21.33ZM405.33,298.67c0,11.73-9.6,21.33-21.33,21.33H128c-11.73,0-21.33-9.6-21.33-21.33s9.6-21.33,21.33-21.33h256c11.73,0,21.33,9.6,21.33,21.33ZM213.33,384c0,11.73-9.6,21.33-21.33,21.33h-64c-11.73,0-21.33-9.6-21.33-21.33s9.6-21.33,21.33-21.33h64c11.73,0,21.33,9.6,21.33,21.33Z"/>
</svg>