<?xml version="1.0" encoding="UTF-8"?>
<svg id="Layer_1" xmlns="http://www.w3.org/2000/svg" version="1.1" viewBox="0 0 512 512">
  <!-- Generator: Adobe Illustrator 29.5.0, SVG Export Plug-In . SVG Version: 2.1.0 Build 137)  -->
  <defs>
    <style>
      .st0 {
        fill: #2d2d2b;
      }
    </style>
  </defs>
  <path class="st0" d="M256,0C114.68.15.15,114.68,0,256c-2.69,204.22,238.06,329.15,403.2,209.43,9.81-6.53,12.47-19.77,5.95-29.58-6.53-9.81-19.77-12.47-29.58-5.95-.32.21-.64.44-.94.67-137.56,99.69-338.09-4.37-335.96-174.57,11.71-283.01,415-282.94,426.67,0v42.67c0,23.56-19.1,42.67-42.67,42.67s-42.67-19.1-42.67-42.67v-42.67c-5.38-169.15-250.65-169.13-256,0,.68,70.89,58.7,127.81,129.59,127.13,36.3-.35,70.76-16.05,94.84-43.22,23.23,41,75.31,55.41,116.31,32.18,26.48-15,42.97-42.98,43.26-73.41v-42.67C511.85,114.68,397.32.15,256,0ZM256,341.33c-47.13,0-85.33-38.21-85.33-85.33s38.21-85.33,85.33-85.33,85.33,38.21,85.33,85.33-38.21,85.33-85.33,85.33Z"/>
</svg>