<?xml version="1.0" encoding="UTF-8"?>
<svg id="Vrstva_1" xmlns="http://www.w3.org/2000/svg" version="1.1" viewBox="0 0 50 50">
  <!-- Generator: Adobe Illustrator 29.5.0, SVG Export Plug-In . SVG Version: 2.1.0 Build 137)  -->
  <defs>
    <style>
      .st0 {
        fill: #fefefe;
        fill-rule: evenodd;
      }
    </style>
  </defs>
  <path class="st0" d="M25.93,44.94c-4.1,0-7.91-1.23-11.11-3.32l-7.75,2.46,2.5-7.46c-2.42-3.28-3.85-7.38-3.85-11.77,0-.66.04-1.27.12-1.93C6.82,12.75,15.47,4.79,25.93,4.79s19.35,8.16,20.17,18.49c.04.53.04,1.07.04,1.56,0,11.07-9.06,20.09-20.21,20.09h0ZM36.96,29.68c-.61-.29-3.48-1.72-4.02-1.93-.58-.16-.94-.29-1.35.33-.37.57-1.52,1.89-1.85,2.25-.37.41-.7.45-1.27.16-.62-.29-2.5-.9-4.76-2.91-1.76-1.56-2.95-3.44-3.28-4.02-.33-.61-.04-.9.25-1.23.29-.25.62-.66.9-1.03.08-.08.16-.16.21-.25.16-.25.25-.45.37-.7.2-.41.12-.74-.04-1.02-.13-.29-1.31-3.2-1.81-4.35-.49-1.19-.98-.98-1.31-.98-.37,0-.74-.04-1.15-.04s-1.03.12-1.56.74c-.57.57-2.09,1.97-2.09,4.88,0,.66.12,1.35.33,1.97.57,2.09,1.89,3.77,2.09,4.06.29.41,4.06,6.48,10.04,8.82,6.03,2.34,6.03,1.56,7.09,1.48,1.07-.08,3.49-1.39,3.98-2.79.49-1.35.49-2.54.33-2.79-.12-.2-.53-.37-1.11-.66h0ZM49.96,24.27c-.33-12.92-10.95-23.25-24.03-23.25S2.48,11.11,1.94,23.82c-.04.33-.04.7-.04,1.02,0,4.51,1.27,8.73,3.45,12.34l-4.35,12.79,13.33-4.22c3.45,1.89,7.42,2.95,11.61,2.95,13.29,0,24.07-10.66,24.07-23.87,0-.2-.04-.37-.04-.57h0Z"/>
</svg>