<?xml version="1.0" encoding="UTF-8"?>
<svg id="Vrstva_1" xmlns="http://www.w3.org/2000/svg" version="1.1" viewBox="0 0 50 50">
  <!-- Generator: Adobe Illustrator 29.3.1, SVG Export Plug-In . SVG Version: 2.1.0 Build 151)  -->
  <defs>
    <style>
      .st0 {
        fill: #fff;
      }
    </style>
  </defs>
  <path class="st0" d="M35.77,50H14.23c-7.85,0-14.23-6.38-14.23-14.23V14.23C0,6.38,6.38,0,14.23,0h21.54C43.62,0,50,6.38,50,14.23v21.54c0,7.85-6.38,14.23-14.23,14.23ZM14.23,4.29c-5.48,0-9.95,4.46-9.95,9.94v21.54c0,5.48,4.46,9.94,9.95,9.94h21.54c5.48,0,9.95-4.46,9.95-9.94V14.23c0-5.48-4.46-9.94-9.95-9.94H14.23Z"/>
  <path class="st0" d="M25,37.8c-7.06,0-12.8-5.74-12.8-12.8s5.74-12.8,12.8-12.8,12.8,5.74,12.8,12.8-5.74,12.8-12.8,12.8ZM25,16.48c-4.7,0-8.52,3.82-8.52,8.52s3.82,8.52,8.52,8.52,8.52-3.82,8.52-8.52-3.82-8.52-8.52-8.52Z"/>
  <path class="st0" d="M41.43,11.47c0,1.7-1.38,3.08-3.08,3.08s-3.08-1.38-3.08-3.08,1.38-3.08,3.08-3.08,3.08,1.38,3.08,3.08Z"/>
</svg>