<?xml version="1.0" encoding="UTF-8"?>
<svg id="Layer_1" xmlns="http://www.w3.org/2000/svg" version="1.1" viewBox="0 0 512 512">
  <!-- Generator: Adobe Illustrator 29.5.0, SVG Export Plug-In . SVG Version: 2.1.0 Build 137)  -->
  <defs>
    <style>
      .st0 {
        fill: #2d2d2b;
      }
    </style>
  </defs>
  <path class="st0" d="M277.33,21.33c0-11.78,9.55-21.33,21.33-21.33,117.77.13,213.2,95.57,213.33,213.33,0,11.78-9.55,21.33-21.33,21.33s-21.33-9.55-21.33-21.33c-.11-94.21-76.45-170.56-170.67-170.67-11.78,0-21.33-9.55-21.33-21.33ZM298.67,128c47.13,0,85.33,38.21,85.33,85.33,0,11.78,9.55,21.33,21.33,21.33s21.33-9.55,21.33-21.33c-.07-70.66-57.34-127.93-128-128-11.78,0-21.33,9.55-21.33,21.33s9.55,21.33,21.33,21.33ZM492.65,357.1c25.74,25.81,25.74,67.59,0,93.4l-19.41,22.38C298.52,640.15-126.66,215.08,38.04,39.81l24.53-21.33c25.83-25.01,66.95-24.63,92.31.85.66.66,40.19,52.01,40.19,52.01,24.37,25.6,24.3,65.83-.15,91.35l-24.7,31.06c27.61,67.09,80.83,120.41,147.86,148.16l31.25-24.85c25.52-24.43,65.74-24.49,91.33-.13,0,0,51.33,39.51,51.99,40.17ZM463.3,388.12s-51.05-39.27-51.71-39.94c-9.15-9.07-23.9-9.07-33.05,0-.58.6-43.61,34.88-43.61,34.88-5.9,4.7-13.84,5.93-20.89,3.24-87-32.39-155.66-100.95-188.18-187.9-2.9-7.15-1.72-15.3,3.09-21.33,0,0,34.28-43.05,34.86-43.61,9.07-9.15,9.07-23.9,0-33.05-.66-.64-39.94-51.73-39.94-51.73-9.26-8.3-23.39-7.94-32.21.83l-24.53,21.33c-120.36,144.73,248.09,492.74,374.91,372.89l19.43-22.4c9.47-8.77,10.27-23.47,1.81-33.22h0Z"/>
</svg>