<svg width="114" height="80" viewBox="0 0 114 80" fill="none" xmlns="http://www.w3.org/2000/svg">
<path d="M40.2671 43.0915C47.9187 43.0915 56.5768 46.9319 59.4461 54.7332C60.7783 58.3577 59.3929 64.8461 58.5735 67.8815C56.6622 73.9477 49.5542 78.9993 42.1784 79.7582H40.8139C38.9026 79.7582 36.7188 79.2518 34.8075 78.7453C26.8849 76.2179 23.3333 70.1486 23.3333 63.3204C23.3333 58.264 25.2446 52.952 29.0688 48.9068C31.8027 45.873 35.351 43.3439 39.4494 43.0915H40.2671Z" fill="#D41116"/>
<path d="M15.9298 6.72H12.9816C12.3159 6.72 12.1257 6.912 12.1257 7.584V34.224C12.1257 35.616 11.7453 36 10.3663 36H7.32296C5.94396 36 5.56355 35.616 5.56355 34.224V7.584C5.56355 6.912 5.37334 6.72 4.70762 6.72H1.75941C0.380414 6.72 0 6.336 0 4.944V1.776C0 0.384001 0.380414 0 1.75941 0H15.9298C17.3088 0 17.6892 0.384001 17.6892 1.776V4.944C17.6892 6.336 17.3088 6.72 15.9298 6.72Z" fill="#ECECEC"/>
<path d="M33.0166 34.224V21.264C33.0166 20.592 32.8264 20.4 32.1607 20.4H28.2614C27.5957 20.4 27.4055 20.592 27.4055 21.264V34.224C27.4055 35.616 27.0251 36 25.6461 36H22.6028C21.2238 36 20.8434 35.616 20.8434 34.224V1.776C20.8434 0.384001 21.2238 0 22.6028 0H25.6461C27.0251 0 27.4055 0.384001 27.4055 1.776V12.816C27.4055 13.44 27.5957 13.68 28.2614 13.68H32.1607C32.8264 13.68 33.0166 13.44 33.0166 12.816V1.776C33.0166 0.384001 33.397 0 34.776 0H37.8193C39.1983 0 39.5787 0.384001 39.5787 1.776V34.224C39.5787 35.616 39.1983 36 37.8193 36H34.776C33.397 36 33.0166 35.616 33.0166 34.224Z" fill="#ECECEC"/>
<path d="M50.4848 7.584V12.96C50.4848 13.584 50.675 13.824 51.3407 13.824H57.2371C58.6161 13.824 58.9965 14.208 58.9965 15.6V18.768C58.9965 20.16 58.6161 20.544 57.3322 20.544H51.3407C50.675 20.544 50.4848 20.736 50.4848 21.408V28.416C50.4848 29.04 50.675 29.28 51.3407 29.28H57.8078C59.1868 29.28 59.5672 29.664 59.5672 31.056V34.224C59.5672 35.616 59.1868 36 57.8078 36H45.6821C44.3031 36 43.9227 35.616 43.9227 34.224V1.776C43.9227 0.384001 44.3031 0 45.6821 0H57.8078C59.1868 0 59.5672 0.384001 59.5672 1.776V4.944C59.5672 6.336 59.1868 6.72 57.8078 6.72H51.3407C50.675 6.72 50.4848 6.912 50.4848 7.584Z" fill="#ECECEC"/>
<path d="M9.9383 67.664H9.32013C8.65441 67.664 8.4642 67.856 8.4642 68.528V78.224C8.4642 79.616 8.08379 80 6.70479 80H3.66148C2.28248 80 1.90207 79.616 1.90207 78.224V45.776C1.90207 44.384 2.28248 44 3.66148 44H9.9383C17.1662 44 20.4472 46.64 20.4472 53.12V58.544C20.4472 65.024 17.1662 67.664 9.9383 67.664ZM8.4642 51.584V60.08C8.4642 60.752 8.65441 60.944 9.32013 60.944H10.3187C12.6488 60.944 13.6949 59.984 13.6949 57.536V54.128C13.6949 51.68 12.6488 50.72 10.3187 50.72H9.32013C8.65441 50.72 8.4642 50.912 8.4642 51.584Z" fill="#ECECEC"/>
<path d="M68.9604 45.776V78.224C68.9604 79.616 68.58 80 67.201 80H64.1577C62.7787 80 62.3983 79.616 62.3983 78.224V45.776C62.3983 44.384 62.7787 44 64.1577 44H67.201C68.58 44 68.9604 44.384 68.9604 45.776Z" fill="#ECECEC"/>
<path d="M86.2937 61.424V45.776C86.2937 44.384 86.6742 44 88.0532 44H90.7161C92.0951 44 92.4755 44.384 92.4755 45.776V78.224C92.4755 79.616 92.0951 80 90.7161 80H88.5287C87.0546 80 86.6266 79.664 86.1511 78.368L80.2071 62.48C80.0645 62.144 79.9218 62.048 79.7316 62.048C79.4939 62.048 79.3988 62.144 79.3988 62.576V78.224C79.3988 79.616 79.0183 80 77.6393 80H75.024C73.645 80 73.2646 79.616 73.2646 78.224V45.776C73.2646 44.384 73.645 44 75.024 44H77.1638C78.5428 44 79.0183 44.144 79.4463 45.248L85.4854 61.52C85.628 61.856 85.7707 61.952 85.9609 61.952C86.1986 61.952 86.2937 61.856 86.2937 61.424Z" fill="#ECECEC"/>
<path d="M111.574 50.72H108.626C107.96 50.72 107.77 50.912 107.77 51.584V78.224C107.77 79.616 107.389 80 106.01 80H102.967C101.588 80 101.208 79.616 101.208 78.224V51.584C101.208 50.912 101.017 50.72 100.352 50.72H97.4035C96.0245 50.72 95.6441 50.336 95.6441 48.944V45.776C95.6441 44.384 96.0245 44 97.4035 44H111.574C112.953 44 113.333 44.384 113.333 45.776V48.944C113.333 50.336 112.953 50.72 111.574 50.72Z" fill="#ECECEC"/>
</svg>
