<?xml version="1.0" encoding="UTF-8"?>
<svg xmlns="http://www.w3.org/2000/svg" viewBox="0 0 1080 1080">
  <defs>
    <style>
      .cls-1 {
        fill: #2d2d2b;
      }

      .cls-2 {
        fill: #ececec;
      }

      .cls-3 {
        fill: #d41116;
      }
    </style>
  </defs>
  <g id="BG">
    <rect class="cls-2" x="-.89" y="0" width="1080" height="1080"/>
  </g>
  <g id="LOGO">
    <g>
      <path class="cls-3" d="M465.86,548.15c44.92,0,95.75,22.54,112.59,68.34,7.82,21.28-.31,59.37-5.12,77.19-11.22,35.61-52.95,65.27-96.25,69.72h-8.01c-11.22,0-24.04-2.97-35.26-5.95-46.51-14.84-67.36-50.47-67.36-90.55,0-29.68,11.22-60.87,33.67-84.61,16.05-17.81,36.88-32.66,60.94-34.14h4.8Z"/>
      <path class="cls-1" d="M328.86,334.63h-17.31c-3.91,0-5.02,1.13-5.02,5.07v156.39c0,8.17-2.23,10.43-10.33,10.43h-17.87c-8.1,0-10.33-2.25-10.33-10.43v-156.39c0-3.94-1.12-5.07-5.02-5.07h-17.31c-8.1,0-10.33-2.25-10.33-10.43v-18.6c0-8.17,2.23-10.43,10.33-10.43h83.19c8.1,0,10.33,2.25,10.33,10.43v18.6c0,8.17-2.23,10.43-10.33,10.43Z"/>
      <path class="cls-1" d="M429.16,496.09v-76.08c0-3.94-1.12-5.07-5.02-5.07h-22.89c-3.91,0-5.02,1.13-5.02,5.07v76.08c0,8.17-2.23,10.43-10.33,10.43h-17.87c-8.1,0-10.33-2.25-10.33-10.43v-190.49c0-8.17,2.23-10.43,10.33-10.43h17.87c8.1,0,10.33,2.25,10.33,10.43v64.81c0,3.66,1.12,5.07,5.02,5.07h22.89c3.91,0,5.02-1.41,5.02-5.07v-64.81c0-8.17,2.23-10.43,10.33-10.43h17.87c8.1,0,10.33,2.25,10.33,10.43v190.49c0,8.17-2.23,10.43-10.33,10.43h-17.87c-8.1,0-10.33-2.25-10.33-10.43Z"/>
      <path class="cls-1" d="M531.71,339.7v31.56c0,3.66,1.12,5.07,5.02,5.07h34.61c8.1,0,10.33,2.25,10.33,10.43v18.6c0,8.17-2.23,10.43-9.77,10.43h-35.17c-3.91,0-5.02,1.13-5.02,5.07v41.14c0,3.66,1.12,5.07,5.02,5.07h37.96c8.1,0,10.33,2.25,10.33,10.43v18.6c0,8.17-2.23,10.43-10.33,10.43h-71.18c-8.1,0-10.33-2.25-10.33-10.43v-190.49c0-8.17,2.23-10.43,10.33-10.43h71.18c8.1,0,10.33,2.25,10.33,10.43v18.6c0,8.17-2.23,10.43-10.33,10.43h-37.96c-3.91,0-5.02,1.13-5.02,5.07Z"/>
      <path class="cls-1" d="M293.68,692.4h-3.63c-3.91,0-5.02,1.13-5.02,5.07v56.92c0,8.17-2.23,10.43-10.33,10.43h-17.87c-8.1,0-10.33-2.25-10.33-10.43v-190.49c0-8.17,2.23-10.43,10.33-10.43h36.85c42.43,0,61.69,15.5,61.69,53.54v31.84c0,38.04-19.26,53.54-61.69,53.54ZM285.03,598v49.88c0,3.94,1.12,5.07,5.02,5.07h5.86c13.68,0,19.82-5.64,19.82-20.01v-20.01c0-14.37-6.14-20.01-19.82-20.01h-5.86c-3.91,0-5.02,1.13-5.02,5.07Z"/>
      <path class="cls-1" d="M640.17,563.91v190.49c0,8.17-2.23,10.43-10.33,10.43h-17.87c-8.1,0-10.33-2.25-10.33-10.43v-190.49c0-8.17,2.23-10.43,10.33-10.43h17.87c8.1,0,10.33,2.25,10.33,10.43Z"/>
      <path class="cls-1" d="M741.93,655.77v-91.86c0-8.17,2.23-10.43,10.33-10.43h15.63c8.1,0,10.33,2.25,10.33,10.43v190.49c0,8.17-2.23,10.43-10.33,10.43h-12.84c-8.65,0-11.17-1.97-13.96-9.58l-34.89-93.27c-.84-1.97-1.67-2.54-2.79-2.54-1.4,0-1.95.56-1.95,3.1v91.86c0,8.17-2.23,10.43-10.33,10.43h-15.35c-8.1,0-10.33-2.25-10.33-10.43v-190.49c0-8.17,2.23-10.43,10.33-10.43h12.56c8.1,0,10.89.85,13.4,7.33l35.45,95.52c.84,1.97,1.67,2.54,2.79,2.54,1.4,0,1.95-.56,1.95-3.1Z"/>
      <path class="cls-1" d="M890.33,592.93h-17.31c-3.91,0-5.03,1.13-5.03,5.07v156.39c0,8.17-2.24,10.43-10.33,10.43h-17.86c-8.1,0-10.33-2.25-10.33-10.43v-156.39c0-3.94-1.12-5.07-5.03-5.07h-17.31c-8.1,0-10.33-2.25-10.33-10.43v-18.6c0-8.17,2.23-10.43,10.33-10.43h83.19c8.1,0,10.33,2.25,10.33,10.43v18.6c0,8.17-2.23,10.43-10.33,10.43Z"/>
    </g>
  </g>
</svg>