<?xml version="1.0" encoding="UTF-8"?>
<svg xmlns="http://www.w3.org/2000/svg" version="1.1" viewBox="0 0 1080 1080">
  <!-- Generator: Adobe Illustrator 29.4.0, SVG Export Plug-In . SVG Version: 2.1.0 Build 152)  -->
  <defs>
    <style>
      .st0 {
        fill: #1d1d1b;
      }

      .st1 {
        fill: #ececec;
      }

      .st2 {
        fill: #d41116;
      }
    </style>
  </defs>
  <g id="BG">
    <rect class="st0" x="0" y="0" width="1080" height="1080"/>
  </g>
  <g id="LOGO">
    <g>
      <path class="st2" d="M465.9,548.1c44.9,0,95.7,22.5,112.6,68.3,7.8,21.3-.3,59.4-5.1,77.2-11.2,35.6-52.9,65.3-96.2,69.7h-8c-11.2,0-24-3-35.3-5.9-46.5-14.8-67.4-50.5-67.4-90.6s11.2-60.9,33.7-84.6c16-17.8,36.9-32.7,60.9-34.1h4.8Z"/>
      <path class="st1" d="M328.9,334.6h-17.3c-3.9,0-5,1.1-5,5.1v156.4c0,8.2-2.2,10.4-10.3,10.4h-17.9c-8.1,0-10.3-2.3-10.3-10.4v-156.4c0-3.9-1.1-5.1-5-5.1h-17.3c-8.1,0-10.3-2.3-10.3-10.4v-18.6c0-8.2,2.2-10.4,10.3-10.4h83.2c8.1,0,10.3,2.3,10.3,10.4v18.6c0,8.2-2.2,10.4-10.3,10.4Z"/>
      <path class="st1" d="M429.2,496.1v-76.1c0-3.9-1.1-5.1-5-5.1h-22.9c-3.9,0-5,1.1-5,5.1v76.1c0,8.2-2.2,10.4-10.3,10.4h-17.9c-8.1,0-10.3-2.3-10.3-10.4v-190.5c0-8.2,2.2-10.4,10.3-10.4h17.9c8.1,0,10.3,2.3,10.3,10.4v64.8c0,3.7,1.1,5.1,5,5.1h22.9c3.9,0,5-1.4,5-5.1v-64.8c0-8.2,2.2-10.4,10.3-10.4h17.9c8.1,0,10.3,2.3,10.3,10.4v190.5c0,8.2-2.2,10.4-10.3,10.4h-17.9c-8.1,0-10.3-2.3-10.3-10.4Z"/>
      <path class="st1" d="M531.7,339.7v31.6c0,3.7,1.1,5.1,5,5.1h34.6c8.1,0,10.3,2.3,10.3,10.4v18.6c0,8.2-2.2,10.4-9.8,10.4h-35.2c-3.9,0-5,1.1-5,5.1v41.1c0,3.7,1.1,5.1,5,5.1h38c8.1,0,10.3,2.3,10.3,10.4v18.6c0,8.2-2.2,10.4-10.3,10.4h-71.2c-8.1,0-10.3-2.3-10.3-10.4v-190.5c0-8.2,2.2-10.4,10.3-10.4h71.2c8.1,0,10.3,2.3,10.3,10.4v18.6c0,8.2-2.2,10.4-10.3,10.4h-38c-3.9,0-5,1.1-5,5.1Z"/>
      <path class="st1" d="M293.7,692.4h-3.6c-3.9,0-5,1.1-5,5.1v56.9c0,8.2-2.2,10.4-10.3,10.4h-17.9c-8.1,0-10.3-2.3-10.3-10.4v-190.5c0-8.2,2.2-10.4,10.3-10.4h36.8c42.4,0,61.7,15.5,61.7,53.5v31.8c0,38-19.3,53.5-61.7,53.5ZM285,598v49.9c0,3.9,1.1,5.1,5,5.1h5.9c13.7,0,19.8-5.6,19.8-20v-20c0-14.4-6.1-20-19.8-20h-5.9c-3.9,0-5,1.1-5,5.1Z"/>
      <path class="st1" d="M640.2,563.9v190.5c0,8.2-2.2,10.4-10.3,10.4h-17.9c-8.1,0-10.3-2.3-10.3-10.4v-190.5c0-8.2,2.2-10.4,10.3-10.4h17.9c8.1,0,10.3,2.3,10.3,10.4Z"/>
      <path class="st1" d="M741.9,655.8v-91.9c0-8.2,2.2-10.4,10.3-10.4h15.6c8.1,0,10.3,2.3,10.3,10.4v190.5c0,8.2-2.2,10.4-10.3,10.4h-12.8c-8.7,0-11.2-2-14-9.6l-34.9-93.3c-.8-2-1.7-2.5-2.8-2.5s-2,.6-2,3.1v91.9c0,8.2-2.2,10.4-10.3,10.4h-15.4c-8.1,0-10.3-2.3-10.3-10.4v-190.5c0-8.2,2.2-10.4,10.3-10.4h12.6c8.1,0,10.9.8,13.4,7.3l35.5,95.5c.8,2,1.7,2.5,2.8,2.5s2-.6,2-3.1Z"/>
      <path class="st1" d="M890.3,592.9h-17.3c-3.9,0-5,1.1-5,5.1v156.4c0,8.2-2.2,10.4-10.3,10.4h-17.9c-8.1,0-10.3-2.3-10.3-10.4v-156.4c0-3.9-1.1-5.1-5-5.1h-17.3c-8.1,0-10.3-2.3-10.3-10.4v-18.6c0-8.2,2.2-10.4,10.3-10.4h83.2c8.1,0,10.3,2.3,10.3,10.4v18.6c0,8.2-2.2,10.4-10.3,10.4Z"/>
    </g>
  </g>
</svg>